# xmcd
# 
# Track frame offsets:
#     150
#     12734
#     29874
#     44091
#     60197
#     79021
#     93586
#     109733
#     128001
#     144684
#     161708
#     175534
#     190664
# 
# Disc length: 2772
# 
# Revision: 8
# Processed by: cddbd v1.5.2PL0 Copyright (c) Steve Scherf et al.
# Submitted via: fre:ac v1.0.31
# 
DISCID=b00ad20d
DTITLE=La Quinta Estacion - El Mundo Se Equivoca
DYEAR=2006
DGENRE=Pop
TTITLE0=Tu Peor Error
TTITLE1=Ahora Que Te Vas
TTITLE2=Me Muero
TTITLE3=Para No Decirte Adios
TTITLE4=Sueños Rotos
TTITLE5=Nada
TTITLE6=Cosa De Dos
TTITLE7=La Frase Tonta De La Semana
TTITLE8=Que Fuí Para Ti
TTITLE9=Cartas
TTITLE10=El Amor No Duele
TTITLE11=Tan Solo Quiero Amarte
TTITLE12=Así Eres
EXTD=
EXTT0=
EXTT1=
EXTT2=
EXTT3=
EXTT4=
EXTT5=
EXTT6=
EXTT7=
EXTT8=
EXTT9=
EXTT10=
EXTT11=
EXTT12=
PLAYORDER=
